<svg width="163" height="61" viewBox="0 0 163 61" fill="none" xmlns="http://www.w3.org/2000/svg">
<g filter="url(#filter0_d_333_497)">
<path d="M1.63495 40C1.38161 40 1.17895 39.9113 1.02695 39.734C0.874945 39.5567 0.824279 39.3287 0.874945 39.05L6.11895 14.35C6.16961 14.0713 6.30895 13.8433 6.53695 13.666C6.76495 13.4887 7.00561 13.4 7.25895 13.4H17.3669C18.9123 13.4 20.3056 13.5773 21.5469 13.932C22.8136 14.2867 23.8649 14.8313 24.701 15.566C25.537 16.3007 26.1196 17.2253 26.449 18.34C26.7783 19.4293 26.7909 20.7087 26.487 22.178C25.8536 25.0913 24.5616 27.2447 22.6109 28.638C20.6856 30.0313 18.0889 30.728 14.8209 30.728H9.69095L7.94295 39.05C7.89228 39.3287 7.75295 39.5567 7.52495 39.734C7.32228 39.9113 7.08161 40 6.80295 40H1.63495ZM10.6789 25.484H15.0489C16.0876 25.484 17.0123 25.2053 17.8229 24.648C18.6589 24.0907 19.2036 23.242 19.4569 22.102C19.5836 21.4433 19.6089 20.8607 19.5329 20.354C19.4569 19.8473 19.1909 19.442 18.7349 19.138C18.3043 18.834 17.6329 18.682 16.7209 18.682H12.1609L10.6789 25.484ZM27.8466 40C27.568 40 27.3526 39.9113 27.2006 39.734C27.074 39.5567 27.036 39.3287 27.0866 39.05L32.3306 14.35C32.3813 14.0713 32.5206 13.8433 32.7486 13.666C32.9766 13.4887 33.23 13.4 33.5086 13.4H43.8446C47.1126 13.4 49.5193 14.16 51.0646 15.68C52.6353 17.1747 53.1293 19.3027 52.5466 22.064C52.1666 23.8627 51.4066 25.3827 50.2666 26.624C49.152 27.8653 47.822 28.8027 46.2766 29.436L49.5066 38.784C49.532 38.86 49.5446 38.9233 49.5446 38.974C49.5446 39.0247 49.532 39.1007 49.5066 39.202C49.4813 39.4047 49.3673 39.5947 49.1646 39.772C48.962 39.924 48.7466 40 48.5186 40H43.5026C43.0213 40 42.692 39.886 42.5146 39.658C42.3626 39.4047 42.2486 39.1767 42.1726 38.974L39.6266 30.614H35.7126L33.9266 39.05C33.876 39.3287 33.7366 39.5567 33.5086 39.734C33.2806 39.9113 33.0273 40 32.7486 40H27.8466ZM36.8526 25.256H41.2606C42.4513 25.256 43.4013 24.9647 44.1106 24.382C44.82 23.7993 45.2886 23.0013 45.5166 21.988C45.7193 21 45.5926 20.202 45.1366 19.594C44.706 18.986 43.87 18.682 42.6286 18.682H38.2586L36.8526 25.256ZM64.0001 40.38C62.4041 40.38 60.9221 40.1647 59.5541 39.734C58.1861 39.3033 57.0334 38.6573 56.0961 37.796C55.1587 36.9347 54.4874 35.858 54.0821 34.566C53.7021 33.274 53.6514 31.7667 53.9301 30.044C54.1327 28.9547 54.3481 27.8653 54.5761 26.776C54.8294 25.6867 55.0827 24.5847 55.3361 23.47C56.1721 20.05 57.6794 17.4533 59.8581 15.68C62.0367 13.9067 64.9754 13.02 68.6741 13.02C70.2701 13.02 71.7394 13.248 73.0821 13.704C74.4501 14.1347 75.6027 14.7933 76.5401 15.68C77.5027 16.5667 78.1741 17.656 78.5541 18.948C78.9594 20.24 79.0101 21.7473 78.7061 23.47C78.5287 24.5847 78.3134 25.6867 78.0601 26.776C77.8321 27.8653 77.5914 28.9547 77.3381 30.044C76.4767 33.5147 74.9567 36.1113 72.7781 37.834C70.5994 39.5313 67.6734 40.38 64.0001 40.38ZM64.4941 34.908C65.8621 34.908 67.0654 34.5027 68.1041 33.692C69.1427 32.8813 69.8774 31.5893 70.3081 29.816C70.5867 28.7013 70.8274 27.65 71.0301 26.662C71.2581 25.674 71.4607 24.648 71.6381 23.584C71.9674 21.8107 71.8154 20.5187 71.1821 19.708C70.5487 18.8973 69.5481 18.492 68.1801 18.492C66.8121 18.492 65.6087 18.8973 64.5701 19.708C63.5567 20.5187 62.8347 21.8107 62.4041 23.584C62.1254 24.648 61.8721 25.674 61.6441 26.662C61.4414 27.65 61.2387 28.7013 61.0361 29.816C60.7321 31.5893 60.8841 32.8813 61.4921 33.692C62.1001 34.5027 63.1007 34.908 64.4941 34.908ZM89.4948 40.38C88.2028 40.38 86.9108 40.2027 85.6188 39.848C84.3521 39.468 83.2121 38.9107 82.1988 38.176C81.1855 37.4413 80.4255 36.5293 79.9188 35.44C79.4121 34.3507 79.2855 33.084 79.5388 31.64C79.5895 31.412 79.7035 31.222 79.8808 31.07C80.0581 30.8927 80.2608 30.804 80.4888 30.804H85.6568C86.0115 30.804 86.2648 30.8927 86.4168 31.07C86.5688 31.2473 86.6701 31.5133 86.7208 31.868C86.7208 32.932 86.9868 33.7047 87.5188 34.186C88.0508 34.6673 88.8615 34.908 89.9508 34.908C91.3188 34.908 92.4208 34.5027 93.2568 33.692C94.0928 32.856 94.6755 31.64 95.0048 30.044L97.3228 19.062H85.0488C84.7701 19.062 84.5548 18.9733 84.4028 18.796C84.2761 18.6187 84.2381 18.3907 84.2888 18.112L85.0868 14.35C85.1375 14.0713 85.2641 13.8433 85.4668 13.666C85.6948 13.4887 85.9481 13.4 86.2268 13.4H104.619C104.897 13.4 105.1 13.4887 105.227 13.666C105.379 13.8433 105.429 14.0713 105.379 14.35L101.997 30.234C101.566 32.438 100.819 34.3 99.7548 35.82C98.7162 37.3147 97.3482 38.4547 95.6508 39.24C93.9788 40 91.9268 40.38 89.4948 40.38Z" fill="#F5F5F5"/>
<path d="M105.949 40C105.671 40 105.455 39.9113 105.303 39.734C105.151 39.5567 105.101 39.3287 105.151 39.05L110.433 14.35C110.484 14.0713 110.623 13.8433 110.851 13.666C111.079 13.4887 111.32 13.4 111.573 13.4H116.703C116.957 13.4 117.159 13.4887 117.311 13.666C117.463 13.8433 117.514 14.0713 117.463 14.35L112.181 39.05C112.131 39.3287 111.991 39.5567 111.763 39.734C111.561 39.9113 111.333 40 111.079 40H105.949ZM118.27 40C118.016 40 117.814 39.9113 117.662 39.734C117.51 39.5567 117.459 39.3287 117.51 39.05L122.754 14.35C122.804 14.0713 122.944 13.8433 123.172 13.666C123.4 13.4887 123.64 13.4 123.894 13.4H141.374C141.652 13.4 141.855 13.4887 141.982 13.666C142.134 13.8433 142.184 14.0713 142.134 14.35L141.336 18.188C141.285 18.4667 141.146 18.6947 140.918 18.872C140.69 19.0493 140.436 19.138 140.158 19.138H128.454L127.276 24.724H138.22C138.498 24.724 138.701 24.8253 138.828 25.028C138.98 25.2053 139.03 25.4333 138.98 25.712L138.144 29.512C138.118 29.7653 137.992 29.9933 137.764 30.196C137.536 30.3733 137.282 30.462 137.004 30.462H126.06L124.198 39.05C124.147 39.3287 124.008 39.5567 123.78 39.734C123.577 39.9113 123.336 40 123.058 40H118.27Z" fill="#2F9E41"/>
</g>
<g filter="url(#filter1_d_333_497)">
<circle cx="116" cy="4" r="4" fill="#CD191E"/>
</g>
<defs>
<filter id="filter0_d_333_497" x="0.79895" y="13.02" width="161.411" height="47.36" filterUnits="userSpaceOnUse" color-interpolation-filters="sRGB">
<feFlood flood-opacity="0" result="BackgroundImageFix"/>
<feColorMatrix in="SourceAlpha" type="matrix" values="0 0 0 0 0 0 0 0 0 0 0 0 0 0 0 0 0 0 127 0" result="hardAlpha"/>
<feOffset dx="10" dy="10"/>
<feGaussianBlur stdDeviation="5"/>
<feComposite in2="hardAlpha" operator="out"/>
<feColorMatrix type="matrix" values="0 0 0 0 0 0 0 0 0 0 0 0 0 0 0 0 0 0 0.25 0"/>
<feBlend mode="normal" in2="BackgroundImageFix" result="effect1_dropShadow_333_497"/>
<feBlend mode="normal" in="SourceGraphic" in2="effect1_dropShadow_333_497" result="shape"/>
</filter>
<filter id="filter1_d_333_497" x="112" y="0" width="28" height="28" filterUnits="userSpaceOnUse" color-interpolation-filters="sRGB">
<feFlood flood-opacity="0" result="BackgroundImageFix"/>
<feColorMatrix in="SourceAlpha" type="matrix" values="0 0 0 0 0 0 0 0 0 0 0 0 0 0 0 0 0 0 127 0" result="hardAlpha"/>
<feOffset dx="10" dy="10"/>
<feGaussianBlur stdDeviation="5"/>
<feComposite in2="hardAlpha" operator="out"/>
<feColorMatrix type="matrix" values="0 0 0 0 0 0 0 0 0 0 0 0 0 0 0 0 0 0 0.25 0"/>
<feBlend mode="normal" in2="BackgroundImageFix" result="effect1_dropShadow_333_497"/>
<feBlend mode="normal" in="SourceGraphic" in2="effect1_dropShadow_333_497" result="shape"/>
</filter>
</defs>
</svg>
