<svg width="210" height="77" viewBox="0 0 210 77" fill="none" xmlns="http://www.w3.org/2000/svg">
<g filter="url(#filter0_d_201_459)">
<path d="M12.0126 55C11.6926 55 11.4366 54.888 11.2446 54.664C11.0526 54.44 10.9886 54.152 11.0526 53.8L17.6766 22.6C17.7406 22.248 17.9166 21.96 18.2046 21.736C18.4926 21.512 18.7966 21.4 19.1166 21.4H31.8846C33.8366 21.4 35.5966 21.624 37.1646 22.072C38.7646 22.52 40.0926 23.208 41.1486 24.136C42.2046 25.064 42.9406 26.232 43.3566 27.64C43.7726 29.016 43.7886 30.632 43.4046 32.488C42.6046 36.168 40.9726 38.888 38.5086 40.648C36.0766 42.408 32.7966 43.288 28.6686 43.288H22.1886L19.9806 53.8C19.9166 54.152 19.7406 54.44 19.4526 54.664C19.1966 54.888 18.8926 55 18.5406 55H12.0126ZM23.4366 36.664H28.9566C30.2686 36.664 31.4366 36.312 32.4606 35.608C33.5166 34.904 34.2046 33.832 34.5246 32.392C34.6846 31.56 34.7166 30.824 34.6206 30.184C34.5246 29.544 34.1886 29.032 33.6126 28.648C33.0686 28.264 32.2206 28.072 31.0686 28.072H25.3086L23.4366 36.664ZM45.1221 55C44.7701 55 44.4981 54.888 44.3061 54.664C44.1461 54.44 44.0981 54.152 44.1621 53.8L50.7861 22.6C50.8501 22.248 51.0261 21.96 51.3141 21.736C51.6021 21.512 51.9221 21.4 52.2741 21.4H65.3301C69.4581 21.4 72.4981 22.36 74.4501 24.28C76.4341 26.168 77.0581 28.856 76.3221 32.344C75.8421 34.616 74.8821 36.536 73.4421 38.104C72.0341 39.672 70.3541 40.856 68.4021 41.656L72.4821 53.464C72.5141 53.56 72.5301 53.64 72.5301 53.704C72.5301 53.768 72.5141 53.864 72.4821 53.992C72.4501 54.248 72.3061 54.488 72.0501 54.712C71.7941 54.904 71.5221 55 71.2341 55H64.8981C64.2901 55 63.8741 54.856 63.6501 54.568C63.4581 54.248 63.3141 53.96 63.2181 53.704L60.0021 43.144H55.0581L52.8021 53.8C52.7381 54.152 52.5621 54.44 52.2741 54.664C51.9861 54.888 51.6661 55 51.3141 55H45.1221ZM56.4981 36.376H62.0661C63.5701 36.376 64.7701 36.008 65.6661 35.272C66.5621 34.536 67.1541 33.528 67.4421 32.248C67.6981 31 67.5381 29.992 66.9621 29.224C66.4181 28.456 65.3621 28.072 63.7941 28.072H58.2741L56.4981 36.376ZM90.7896 55.48C88.7736 55.48 86.9016 55.208 85.1736 54.664C83.4456 54.12 81.9896 53.304 80.8056 52.216C79.6216 51.128 78.7736 49.768 78.2616 48.136C77.7816 46.504 77.7176 44.6 78.0696 42.424C78.3256 41.048 78.5976 39.672 78.8856 38.296C79.2056 36.92 79.5256 35.528 79.8456 34.12C80.9016 29.8 82.8056 26.52 85.5576 24.28C88.3096 22.04 92.0216 20.92 96.6936 20.92C98.7096 20.92 100.566 21.208 102.262 21.784C103.99 22.328 105.446 23.16 106.63 24.28C107.846 25.4 108.694 26.776 109.174 28.408C109.686 30.04 109.75 31.944 109.366 34.12C109.142 35.528 108.87 36.92 108.55 38.296C108.262 39.672 107.958 41.048 107.638 42.424C106.55 46.808 104.63 50.088 101.878 52.264C99.1256 54.408 95.4296 55.48 90.7896 55.48ZM91.4136 48.568C93.1416 48.568 94.6616 48.056 95.9736 47.032C97.2856 46.008 98.2136 44.376 98.7576 42.136C99.1096 40.728 99.4136 39.4 99.6696 38.152C99.9576 36.904 100.214 35.608 100.438 34.264C100.854 32.024 100.662 30.392 99.8616 29.368C99.0616 28.344 97.7976 27.832 96.0696 27.832C94.3416 27.832 92.8216 28.344 91.5096 29.368C90.2296 30.392 89.3176 32.024 88.7736 34.264C88.4216 35.608 88.1016 36.904 87.8136 38.152C87.5576 39.4 87.3016 40.728 87.0456 42.136C86.6616 44.376 86.8536 46.008 87.6216 47.032C88.3896 48.056 89.6536 48.568 91.4136 48.568ZM122.993 55.48C121.361 55.48 119.729 55.256 118.097 54.808C116.497 54.328 115.057 53.624 113.777 52.696C112.497 51.768 111.537 50.616 110.897 49.24C110.257 47.864 110.097 46.264 110.417 44.44C110.481 44.152 110.625 43.912 110.849 43.72C111.073 43.496 111.329 43.384 111.617 43.384H118.145C118.593 43.384 118.913 43.496 119.105 43.72C119.297 43.944 119.425 44.28 119.489 44.728C119.489 46.072 119.825 47.048 120.497 47.656C121.169 48.264 122.193 48.568 123.569 48.568C125.297 48.568 126.689 48.056 127.745 47.032C128.801 45.976 129.537 44.44 129.953 42.424L132.881 28.552H117.377C117.025 28.552 116.753 28.44 116.561 28.216C116.401 27.992 116.353 27.704 116.417 27.352L117.425 22.6C117.489 22.248 117.649 21.96 117.905 21.736C118.193 21.512 118.513 21.4 118.865 21.4H142.097C142.449 21.4 142.705 21.512 142.865 21.736C143.057 21.96 143.121 22.248 143.057 22.6L138.785 42.664C138.241 45.448 137.297 47.8 135.953 49.72C134.641 51.608 132.913 53.048 130.769 54.04C128.657 55 126.065 55.48 122.993 55.48Z" fill="#F5F5F5"/>
<path d="M143.778 55C143.426 55 143.154 54.888 142.962 54.664C142.77 54.44 142.706 54.152 142.77 53.8L149.442 22.6C149.506 22.248 149.682 21.96 149.97 21.736C150.258 21.512 150.562 21.4 150.882 21.4H157.362C157.682 21.4 157.938 21.512 158.13 21.736C158.322 21.96 158.386 22.248 158.322 22.6L151.65 53.8C151.586 54.152 151.41 54.44 151.122 54.664C150.866 54.888 150.578 55 150.258 55H143.778ZM159.341 55C159.021 55 158.765 54.888 158.573 54.664C158.381 54.44 158.317 54.152 158.381 53.8L165.005 22.6C165.069 22.248 165.245 21.96 165.533 21.736C165.821 21.512 166.125 21.4 166.445 21.4H188.525C188.877 21.4 189.133 21.512 189.293 21.736C189.485 21.96 189.549 22.248 189.485 22.6L188.477 27.448C188.413 27.8 188.237 28.088 187.949 28.312C187.661 28.536 187.341 28.648 186.989 28.648H172.205L170.717 35.704H184.541C184.893 35.704 185.149 35.832 185.309 36.088C185.501 36.312 185.565 36.6 185.501 36.952L184.445 41.752C184.413 42.072 184.253 42.36 183.965 42.616C183.677 42.84 183.357 42.952 183.005 42.952H169.181L166.829 53.8C166.765 54.152 166.589 54.44 166.301 54.664C166.045 54.888 165.741 55 165.389 55H159.341Z" fill="#2F9E41"/>
</g>
<g filter="url(#filter1_d_201_459)">
<ellipse cx="155.5" cy="7.91555" rx="6.5" ry="4.47403" fill="#CD191E"/>
</g>
<defs>
<filter id="filter0_d_201_459" x="10.9565" y="20.92" width="198.624" height="54.56" filterUnits="userSpaceOnUse" color-interpolation-filters="sRGB">
<feFlood flood-opacity="0" result="BackgroundImageFix"/>
<feColorMatrix in="SourceAlpha" type="matrix" values="0 0 0 0 0 0 0 0 0 0 0 0 0 0 0 0 0 0 127 0" result="hardAlpha"/>
<feOffset dx="10" dy="10"/>
<feGaussianBlur stdDeviation="5"/>
<feComposite in2="hardAlpha" operator="out"/>
<feColorMatrix type="matrix" values="0 0 0 0 0 0 0 0 0 0 0 0 0 0 0 0 0 0 0.25 0"/>
<feBlend mode="normal" in2="BackgroundImageFix" result="effect1_dropShadow_201_459"/>
<feBlend mode="normal" in="SourceGraphic" in2="effect1_dropShadow_201_459" result="shape"/>
</filter>
<filter id="filter1_d_201_459" x="149" y="3.44153" width="33" height="28.9481" filterUnits="userSpaceOnUse" color-interpolation-filters="sRGB">
<feFlood flood-opacity="0" result="BackgroundImageFix"/>
<feColorMatrix in="SourceAlpha" type="matrix" values="0 0 0 0 0 0 0 0 0 0 0 0 0 0 0 0 0 0 127 0" result="hardAlpha"/>
<feOffset dx="10" dy="10"/>
<feGaussianBlur stdDeviation="5"/>
<feComposite in2="hardAlpha" operator="out"/>
<feColorMatrix type="matrix" values="0 0 0 0 0 0 0 0 0 0 0 0 0 0 0 0 0 0 0.25 0"/>
<feBlend mode="normal" in2="BackgroundImageFix" result="effect1_dropShadow_201_459"/>
<feBlend mode="normal" in="SourceGraphic" in2="effect1_dropShadow_201_459" result="shape"/>
</filter>
</defs>
</svg>
